{
	"asset":{
		"generator":"Khronos glTF Blender I/O v4.1.63",
		"version":"2.0"
	},
	"scene":0,
	"scenes":[
		{
			"name":"Scene",
			"nodes":[
				0
			]
		}
	],
	"nodes":[
		{
			"mesh":0,
			"name":"front_panel"
		}
	],
	"meshes":[
		{
			"extras":{
				"targetNames":[
					"Width",
					"Height"
				]
			},
			"name":"Cube.012",
			"primitives":[
				{
					"attributes":{
						"POSITION":0,
						"NORMAL":1,
						"TEXCOORD_0":2
					},
					"indices":3,
					"targets":[
						{
							"POSITION":4,
							"NORMAL":5
						},
						{
							"POSITION":6,
							"NORMAL":7
						}
					]
				}
			],
			"weights":[
				0,
				0
			]
		}
	],
	"accessors":[
		{
			"bufferView":0,
			"componentType":5126,
			"count":40,
			"max":[
				0.09800000488758087,
				0.05000000447034836,
				0.09999999403953552
			],
			"min":[
				0.0019999928772449493,
				0.0019999947398900986,
				0.09799997508525848
			],
			"type":"VEC3"
		},
		{
			"bufferView":1,
			"componentType":5126,
			"count":40,
			"type":"VEC3"
		},
		{
			"bufferView":2,
			"componentType":5126,
			"count":40,
			"type":"VEC2"
		},
		{
			"bufferView":3,
			"componentType":5123,
			"count":84,
			"type":"SCALAR"
		},
		{
			"bufferView":4,
			"componentType":5126,
			"count":40,
			"max":[
				0.8999999761581421,
				0,
				0
			],
			"min":[
				0,
				0,
				0
			],
			"type":"VEC3"
		},
		{
			"componentType":5126,
			"count":40,
			"sparse":{
				"count":1,
				"indices":{
					"bufferView":5,
					"componentType":5121
				},
				"values":{
					"bufferView":6
				}
			},
			"type":"VEC3"
		},
		{
			"bufferView":7,
			"componentType":5126,
			"count":40,
			"max":[
				0,
				0.8980000615119934,
				0
			],
			"min":[
				0,
				0,
				0
			],
			"type":"VEC3"
		},
		{
			"componentType":5126,
			"count":40,
			"sparse":{
				"count":1,
				"indices":{
					"bufferView":8,
					"componentType":5121
				},
				"values":{
					"bufferView":9
				}
			},
			"type":"VEC3"
		}
	],
	"bufferViews":[
		{
			"buffer":0,
			"byteLength":480,
			"byteOffset":0,
			"target":34962
		},
		{
			"buffer":0,
			"byteLength":480,
			"byteOffset":480,
			"target":34962
		},
		{
			"buffer":0,
			"byteLength":320,
			"byteOffset":960,
			"target":34962
		},
		{
			"buffer":0,
			"byteLength":168,
			"byteOffset":1280,
			"target":34963
		},
		{
			"buffer":0,
			"byteLength":480,
			"byteOffset":1448,
			"target":34962
		},
		{
			"buffer":0,
			"byteLength":1,
			"byteOffset":1928
		},
		{
			"buffer":0,
			"byteLength":12,
			"byteOffset":1932
		},
		{
			"buffer":0,
			"byteLength":480,
			"byteOffset":1944,
			"target":34962
		},
		{
			"buffer":0,
			"byteLength":1,
			"byteOffset":2424
		},
		{
			"buffer":0,
			"byteLength":12,
			"byteOffset":2428
		}
	],
	"buffers":[
		{
			"byteLength":2440,
			"uri":"front_panel.bin"
		}
	]
}
