{
	"asset":{
		"generator":"Khronos glTF Blender I/O v4.1.63",
		"version":"2.0"
	},
	"scene":0,
	"scenes":[
		{
			"name":"Scene",
			"nodes":[
				0
			]
		}
	],
	"nodes":[
		{
			"mesh":0,
			"name":"sepparator"
		}
	],
	"meshes":[
		{
			"extras":{
				"targetNames":[
					"Depth",
					"Height"
				]
			},
			"name":"Cube.017",
			"primitives":[
				{
					"attributes":{
						"POSITION":0,
						"NORMAL":1,
						"TEXCOORD_0":2
					},
					"indices":3,
					"targets":[
						{
							"POSITION":4,
							"NORMAL":5
						},
						{
							"POSITION":6,
							"NORMAL":7
						}
					]
				}
			],
			"weights":[
				0,
				0
			]
		}
	],
	"accessors":[
		{
			"bufferView":0,
			"componentType":5126,
			"count":98,
			"max":[
				0.0020000000949949026,
				0.10199999809265137,
				0.09800000488758087
			],
			"min":[
				-3.958120942115784e-09,
				0.0019999928772449493,
				0.0019999928772449493
			],
			"type":"VEC3"
		},
		{
			"bufferView":1,
			"componentType":5126,
			"count":98,
			"type":"VEC3"
		},
		{
			"bufferView":2,
			"componentType":5126,
			"count":98,
			"type":"VEC2"
		},
		{
			"bufferView":3,
			"componentType":5123,
			"count":252,
			"type":"SCALAR"
		},
		{
			"bufferView":4,
			"componentType":5126,
			"count":98,
			"max":[
				0,
				0,
				0.9000000357627869
			],
			"min":[
				0,
				0,
				0
			],
			"type":"VEC3"
		},
		{
			"componentType":5126,
			"count":98,
			"sparse":{
				"count":38,
				"indices":{
					"bufferView":5,
					"componentType":5121
				},
				"values":{
					"bufferView":6
				}
			},
			"type":"VEC3"
		},
		{
			"bufferView":7,
			"componentType":5126,
			"count":98,
			"max":[
				0,
				0.8980000615119934,
				0
			],
			"min":[
				0,
				0,
				0
			],
			"type":"VEC3"
		},
		{
			"componentType":5126,
			"count":98,
			"sparse":{
				"count":38,
				"indices":{
					"bufferView":8,
					"componentType":5121
				},
				"values":{
					"bufferView":9
				}
			},
			"type":"VEC3"
		}
	],
	"bufferViews":[
		{
			"buffer":0,
			"byteLength":1176,
			"byteOffset":0,
			"target":34962
		},
		{
			"buffer":0,
			"byteLength":1176,
			"byteOffset":1176,
			"target":34962
		},
		{
			"buffer":0,
			"byteLength":784,
			"byteOffset":2352,
			"target":34962
		},
		{
			"buffer":0,
			"byteLength":504,
			"byteOffset":3136,
			"target":34963
		},
		{
			"buffer":0,
			"byteLength":1176,
			"byteOffset":3640,
			"target":34962
		},
		{
			"buffer":0,
			"byteLength":38,
			"byteOffset":4816
		},
		{
			"buffer":0,
			"byteLength":456,
			"byteOffset":4856
		},
		{
			"buffer":0,
			"byteLength":1176,
			"byteOffset":5312,
			"target":34962
		},
		{
			"buffer":0,
			"byteLength":38,
			"byteOffset":6488
		},
		{
			"buffer":0,
			"byteLength":456,
			"byteOffset":6528
		}
	],
	"buffers":[
		{
			"byteLength":6984,
			"uri":"sepparator.bin"
		}
	]
}
