{
    "asset" : {
        "generator" : "Khronos glTF Blender I/O v1.7.33",
        "version" : "2.0"
    },
    "scene" : 0,
    "scenes" : [
        {
            "name" : "Scene",
            "nodes" : [
                0
            ]
        }
    ],
    "nodes" : [
        {
            "mesh" : 0,
            "name" : "section"
        }
    ],
    "meshes" : [
        {
            "extras" : {
                "targetNames" : [
                    "Width",
                    "Height",
                    "Depth",
                    "Edge"
                ]
            },
            "name" : "section",
            "primitives" : [
                {
                    "attributes" : {
                        "POSITION" : 0,
                        "NORMAL" : 1,
                        "TEXCOORD_0" : 2
                    },
                    "indices" : 3,
                    "targets" : [
                        {
                            "POSITION" : 4,
                            "NORMAL" : 5
                        },
                        {
                            "POSITION" : 6,
                            "NORMAL" : 7
                        },
                        {
                            "POSITION" : 8,
                            "NORMAL" : 9
                        },
                        {
                            "POSITION" : 10,
                            "NORMAL" : 11
                        }
                    ]
                }
            ],
            "weights" : [
                1,
                0,
                0,
                1
            ]
        }
    ],
    "accessors" : [
        {
            "bufferView" : 0,
            "componentType" : 5126,
            "count" : 62,
            "max" : [
                0.05000002682209015,
                0.10000000149011612,
                0.10000002384185791
            ],
            "min" : [
                -0.05000002682209015,
                0,
                0
            ],
            "type" : "VEC3"
        },
        {
            "bufferView" : 1,
            "componentType" : 5126,
            "count" : 62,
            "type" : "VEC3"
        },
        {
            "bufferView" : 2,
            "componentType" : 5126,
            "count" : 62,
            "type" : "VEC2"
        },
        {
            "bufferView" : 3,
            "componentType" : 5123,
            "count" : 108,
            "type" : "SCALAR"
        },
        {
            "bufferView" : 4,
            "componentType" : 5126,
            "count" : 62,
            "max" : [
                0.44999998807907104,
                0,
                0
            ],
            "min" : [
                -0.4500000476837158,
                0,
                0
            ],
            "type" : "VEC3"
        },
        {
            "bufferView" : 5,
            "componentType" : 5126,
            "count" : 62,
            "type" : "VEC3"
        },
        {
            "bufferView" : 6,
            "componentType" : 5126,
            "count" : 62,
            "max" : [
                0,
                0.9000000357627869,
                0
            ],
            "min" : [
                0,
                0,
                0
            ],
            "type" : "VEC3"
        },
        {
            "bufferView" : 7,
            "componentType" : 5126,
            "count" : 62,
            "type" : "VEC3"
        },
        {
            "bufferView" : 8,
            "componentType" : 5126,
            "count" : 62,
            "max" : [
                0,
                0,
                0.9000000357627869
            ],
            "min" : [
                0,
                0,
                0
            ],
            "type" : "VEC3"
        },
        {
            "bufferView" : 9,
            "componentType" : 5126,
            "count" : 62,
            "type" : "VEC3"
        },
        {
            "bufferView" : 10,
            "componentType" : 5126,
            "count" : 62,
            "max" : [
                0,
                0.030865848064422607,
                0.030865833163261414
            ],
            "min" : [
                0,
                0,
                0
            ],
            "type" : "VEC3"
        },
        {
            "bufferView" : 11,
            "componentType" : 5126,
            "count" : 62,
            "type" : "VEC3"
        }
    ],
    "bufferViews" : [
        {
            "buffer" : 0,
            "byteLength" : 744,
            "byteOffset" : 0
        },
        {
            "buffer" : 0,
            "byteLength" : 744,
            "byteOffset" : 744
        },
        {
            "buffer" : 0,
            "byteLength" : 496,
            "byteOffset" : 1488
        },
        {
            "buffer" : 0,
            "byteLength" : 216,
            "byteOffset" : 1984
        },
        {
            "buffer" : 0,
            "byteLength" : 744,
            "byteOffset" : 2200
        },
        {
            "buffer" : 0,
            "byteLength" : 744,
            "byteOffset" : 2944
        },
        {
            "buffer" : 0,
            "byteLength" : 744,
            "byteOffset" : 3688
        },
        {
            "buffer" : 0,
            "byteLength" : 744,
            "byteOffset" : 4432
        },
        {
            "buffer" : 0,
            "byteLength" : 744,
            "byteOffset" : 5176
        },
        {
            "buffer" : 0,
            "byteLength" : 744,
            "byteOffset" : 5920
        },
        {
            "buffer" : 0,
            "byteLength" : 744,
            "byteOffset" : 6664
        },
        {
            "buffer" : 0,
            "byteLength" : 744,
            "byteOffset" : 7408
        }
    ],
    "buffers" : [
        {
            "byteLength" : 8152,
            "uri" : "data:application/octet-stream;base64,"
        }
    ]
}
