{
	"asset":{
		"generator":"Khronos glTF Blender I/O v4.1.63",
		"version":"2.0"
	},
	"scene":0,
	"scenes":[
		{
			"name":"Scene",
			"nodes":[
				0
			]
		}
	],
	"nodes":[
		{
			"mesh":0,
			"name":"section"
		}
	],
	"meshes":[
		{
			"extras":{
				"targetNames":[
					"Width",
					"Depth",
					"Height",
					"Edge"
				]
			},
			"name":"section",
			"primitives":[
				{
					"attributes":{
						"POSITION":0,
						"NORMAL":1,
						"TEXCOORD_0":2
					},
					"indices":3,
					"targets":[
						{
							"POSITION":4,
							"NORMAL":5
						},
						{
							"POSITION":6,
							"NORMAL":7
						},
						{
							"POSITION":8,
							"NORMAL":9
						},
						{
							"POSITION":10,
							"NORMAL":11
						}
					]
				}
			],
			"weights":[
				0,
				0,
				0,
				0
			]
		}
	],
	"accessors":[
		{
			"bufferView":0,
			"componentType":5126,
			"count":347,
			"max":[
				0.049999989569187164,
				0.10000000149011612,
				0.10000002384185791
			],
			"min":[
				-0.05000002682209015,
				0,
				0
			],
			"type":"VEC3"
		},
		{
			"bufferView":1,
			"componentType":5126,
			"count":347,
			"type":"VEC3"
		},
		{
			"bufferView":2,
			"componentType":5126,
			"count":347,
			"type":"VEC2"
		},
		{
			"bufferView":3,
			"componentType":5123,
			"count":648,
			"type":"SCALAR"
		},
		{
			"bufferView":4,
			"componentType":5126,
			"count":347,
			"max":[
				0.9500000476837158,
				0,
				0
			],
			"min":[
				-0.9500000476837158,
				0,
				0
			],
			"type":"VEC3"
		},
		{
			"componentType":5126,
			"count":347,
			"sparse":{
				"count":177,
				"indices":{
					"bufferView":5,
					"componentType":5123
				},
				"values":{
					"bufferView":6
				}
			},
			"type":"VEC3"
		},
		{
			"bufferView":7,
			"componentType":5126,
			"count":347,
			"max":[
				0,
				0,
				0.9000000357627869
			],
			"min":[
				0,
				0,
				0
			],
			"type":"VEC3"
		},
		{
			"componentType":5126,
			"count":347,
			"sparse":{
				"count":146,
				"indices":{
					"bufferView":8,
					"componentType":5123
				},
				"values":{
					"bufferView":9
				}
			},
			"type":"VEC3"
		},
		{
			"bufferView":10,
			"componentType":5126,
			"count":347,
			"max":[
				0,
				0.9000000357627869,
				0
			],
			"min":[
				0,
				0,
				0
			],
			"type":"VEC3"
		},
		{
			"componentType":5126,
			"count":347,
			"sparse":{
				"count":146,
				"indices":{
					"bufferView":11,
					"componentType":5123
				},
				"values":{
					"bufferView":12
				}
			},
			"type":"VEC3"
		},
		{
			"componentType":5126,
			"count":347,
			"max":[
				3.725290298461914e-09,
				0.049810294061899185,
				0.04981020838022232
			],
			"min":[
				-3.725290298461914e-09,
				0,
				0
			],
			"sparse":{
				"count":225,
				"indices":{
					"bufferView":13,
					"componentType":5123
				},
				"values":{
					"bufferView":14
				}
			},
			"type":"VEC3"
		},
		{
			"componentType":5126,
			"count":347,
			"sparse":{
				"count":256,
				"indices":{
					"bufferView":15,
					"componentType":5123
				},
				"values":{
					"bufferView":16
				}
			},
			"type":"VEC3"
		}
	],
	"bufferViews":[
		{
			"buffer":0,
			"byteLength":4164,
			"byteOffset":0,
			"target":34962
		},
		{
			"buffer":0,
			"byteLength":4164,
			"byteOffset":4164,
			"target":34962
		},
		{
			"buffer":0,
			"byteLength":2776,
			"byteOffset":8328,
			"target":34962
		},
		{
			"buffer":0,
			"byteLength":1296,
			"byteOffset":11104,
			"target":34963
		},
		{
			"buffer":0,
			"byteLength":4164,
			"byteOffset":12400,
			"target":34962
		},
		{
			"buffer":0,
			"byteLength":354,
			"byteOffset":16564
		},
		{
			"buffer":0,
			"byteLength":2124,
			"byteOffset":16920
		},
		{
			"buffer":0,
			"byteLength":4164,
			"byteOffset":19044,
			"target":34962
		},
		{
			"buffer":0,
			"byteLength":292,
			"byteOffset":23208
		},
		{
			"buffer":0,
			"byteLength":1752,
			"byteOffset":23500
		},
		{
			"buffer":0,
			"byteLength":4164,
			"byteOffset":25252,
			"target":34962
		},
		{
			"buffer":0,
			"byteLength":292,
			"byteOffset":29416
		},
		{
			"buffer":0,
			"byteLength":1752,
			"byteOffset":29708
		},
		{
			"buffer":0,
			"byteLength":450,
			"byteOffset":31460
		},
		{
			"buffer":0,
			"byteLength":2700,
			"byteOffset":31912
		},
		{
			"buffer":0,
			"byteLength":512,
			"byteOffset":34612
		},
		{
			"buffer":0,
			"byteLength":3072,
			"byteOffset":35124
		}
	],
	"buffers":[
		{
			"byteLength":38196,
			"uri":"shelves.bin"
		}
	]
}
